<svg viewBox="0 0 720 300" xmlns="http://www.w3.org/2000/svg" role="img" aria-label="CPU와 GPU 타임라인 비교. 조건이 데이터로 흐르면 CPU가 커널을 미리 쌓아 두고 GPU가 쉬지 않는다. host가 조건값을 읽으면 CPU가 sync로 기다렸다가 판단한 뒤 다음 커널을 넣고 그사이 GPU에 유휴 구간이 생긴다">
<defs><marker id="ccArrow5" viewBox="0 0 10 10" refX="8" refY="5" markerWidth="6" markerHeight="6" orient="auto-start-reverse"><path d="M0 0 L10 5 L0 10 z" class="n-gray"/></marker></defs>
<text x="14.0" y="24.0" text-anchor="start" class="lbl" font-size="14" font-weight="700">(a) 조건이 데이터로 흐를 때 · masked</text>
<text x="14.0" y="55.0" text-anchor="start" class="lbl" font-size="13" font-weight="700">CPU</text>
<text x="14.0" y="90.0" text-anchor="start" class="lbl" font-size="13" font-weight="700">GPU</text>
<rect x="120" y="38" width="16" height="24" rx="3" class="box-neutral s-gray" stroke-width="1.1"/>
<rect x="139" y="38" width="16" height="24" rx="3" class="box-neutral s-gray" stroke-width="1.1"/>
<rect x="158" y="38" width="16" height="24" rx="3" class="box-neutral s-gray" stroke-width="1.1"/>
<rect x="177" y="38" width="16" height="24" rx="3" class="box-neutral s-gray" stroke-width="1.1"/>
<rect x="196" y="38" width="16" height="24" rx="3" class="box-neutral s-gray" stroke-width="1.1"/>
<rect x="215" y="38" width="16" height="24" rx="3" class="box-neutral s-gray" stroke-width="1.1"/>
<rect x="234" y="38" width="16" height="24" rx="3" class="box-neutral s-gray" stroke-width="1.1"/>
<rect x="253" y="38" width="16" height="24" rx="3" class="box-neutral s-gray" stroke-width="1.1"/>
<text x="284.0" y="55.0" text-anchor="start" class="lbl-sub" font-size="12.5">커널을 미리 쌓아 둠</text>
<rect x="126.0" y="70.0" width="58.0" height="30.0" rx="4" class="t-blue s-blue" stroke-width="1.3"/>
<text x="155.0" y="90.0" text-anchor="middle" class="lbl" font-size="12.5" font-weight="700">L1</text>
<rect x="186.0" y="70.0" width="58.0" height="30.0" rx="4" class="t-blue s-blue" stroke-width="1.3"/>
<text x="215.0" y="90.0" text-anchor="middle" class="lbl" font-size="12.5">…</text>
<rect x="246.0" y="70.0" width="58.0" height="30.0" rx="4" class="t-blue s-blue" stroke-width="1.3"/>
<text x="275.0" y="90.0" text-anchor="middle" class="lbl" font-size="12.5" font-weight="700">L15</text>
<rect x="306.0" y="70.0" width="58.0" height="30.0" rx="4" class="t-blue s-blue" stroke-width="1.3"/>
<text x="335.0" y="90.0" text-anchor="middle" class="lbl" font-size="12.5" font-weight="700">L16</text>
<rect x="366.0" y="70.0" width="58.0" height="30.0" rx="4" class="t-blue s-blue" stroke-width="1.3"/>
<text x="395.0" y="90.0" text-anchor="middle" class="lbl" font-size="12.5" font-weight="700">L17</text>
<rect x="426.0" y="70.0" width="58.0" height="30.0" rx="4" class="t-blue s-blue" stroke-width="1.3"/>
<text x="455.0" y="90.0" text-anchor="middle" class="lbl" font-size="12.5">…</text>
<rect x="486.0" y="70.0" width="58.0" height="30.0" rx="4" class="t-blue s-blue" stroke-width="1.3"/>
<text x="515.0" y="90.0" text-anchor="middle" class="lbl" font-size="12.5" font-weight="700">L32</text>
<text x="556.0" y="90.0" text-anchor="start" class="lbl-sub" font-size="12.5">쉬지 않고 실행</text>
<path d="M8 122 L712 122" class="edge" stroke-width="0.8" stroke-opacity="0.35" fill="none"/>
<text x="14.0" y="148.0" text-anchor="start" class="lbl" font-size="14" font-weight="700">(b) host가 조건값을 읽어야 할 때 · scalar if, gather_scatter</text>
<text x="14.0" y="177.0" text-anchor="start" class="lbl" font-size="13" font-weight="700">CPU</text>
<text x="14.0" y="224.0" text-anchor="start" class="lbl" font-size="13" font-weight="700">GPU</text>
<rect x="120" y="162" width="16" height="24" rx="3" class="box-neutral s-gray" stroke-width="1.1"/>
<rect x="139" y="162" width="16" height="24" rx="3" class="box-neutral s-gray" stroke-width="1.1"/>
<rect x="158" y="162" width="16" height="24" rx="3" class="box-neutral s-gray" stroke-width="1.1"/>
<rect x="177" y="162" width="16" height="24" rx="3" class="box-neutral s-gray" stroke-width="1.1"/>
<rect x="196" y="162" width="16" height="24" rx="3" class="box-neutral s-gray" stroke-width="1.1"/>
<rect x="214.0" y="162.0" width="128.0" height="24.0" rx="4" class="t-amber s-amber" stroke-width="1.4"/>
<text x="278.0" y="179.0" text-anchor="middle" class="lbl" font-size="12.5" font-weight="700">sync 대기</text>
<rect x="344.0" y="162.0" width="32.0" height="24.0" rx="8" class="box-neutral" stroke-width="1.2"/>
<text x="360.0" y="179.0" text-anchor="middle" class="lbl" font-size="11.5">판단</text>
<rect x="380" y="162" width="16" height="24" rx="3" class="box-neutral s-gray" stroke-width="1.1"/>
<rect x="399" y="162" width="16" height="24" rx="3" class="box-neutral s-gray" stroke-width="1.1"/>
<rect x="418" y="162" width="16" height="24" rx="3" class="box-neutral s-gray" stroke-width="1.1"/>
<rect x="437" y="162" width="16" height="24" rx="3" class="box-neutral s-gray" stroke-width="1.1"/>
<text x="462.0" y="179.0" text-anchor="start" class="lbl-sub" font-size="12.5">다시 쌓기 시작</text>
<rect x="126.0" y="204.0" width="58.0" height="30.0" rx="4" class="t-blue s-blue" stroke-width="1.3"/>
<text x="155.0" y="224.0" text-anchor="middle" class="lbl" font-size="12.5" font-weight="700">L1</text>
<rect x="186.0" y="204.0" width="58.0" height="30.0" rx="4" class="t-blue s-blue" stroke-width="1.3"/>
<text x="215.0" y="224.0" text-anchor="middle" class="lbl" font-size="12.5">…</text>
<rect x="246.0" y="204.0" width="58.0" height="30.0" rx="4" class="t-blue s-blue" stroke-width="1.3"/>
<text x="275.0" y="224.0" text-anchor="middle" class="lbl" font-size="12.5" font-weight="700">L15</text>
<rect x="306.0" y="204.0" width="34.0" height="30.0" rx="4" class="t-amber s-amber" stroke-width="1.3"/>
<text x="323.0" y="224.0" text-anchor="middle" class="lbl" font-size="12">D2H</text>
<rect x="342" y="204" width="70" height="30" rx="4" class="t-red s-red" stroke-width="1.4" stroke-dasharray="4 3"/>
<text x="377.0" y="224.0" text-anchor="middle" class="lbl" font-size="12.5" font-weight="700">유휴</text>
<rect x="414.0" y="204.0" width="58.0" height="30.0" rx="4" class="t-blue s-blue" stroke-width="1.3"/>
<text x="443.0" y="224.0" text-anchor="middle" class="lbl" font-size="12.5" font-weight="700">L16</text>
<rect x="474.0" y="204.0" width="58.0" height="30.0" rx="4" class="t-blue s-blue" stroke-width="1.3"/>
<text x="503.0" y="224.0" text-anchor="middle" class="lbl" font-size="12.5">…</text>
<rect x="534.0" y="204.0" width="58.0" height="30.0" rx="4" class="t-blue s-blue" stroke-width="1.3"/>
<text x="563.0" y="224.0" text-anchor="middle" class="lbl" font-size="12.5" font-weight="700">L32</text>
<path d="M323.0 203.0 L338.0 188.0" class="edge" fill="none" stroke-width="1.6" marker-end="url(#ccArrow5)"/>
<path d="M388.0 188.0 L420.0 203.0" class="edge" fill="none" stroke-width="1.6" marker-end="url(#ccArrow5)"/>
<text x="377.0" y="254.0" text-anchor="middle" class="lbl" font-size="12.5" font-weight="700">46.7~47.1 μs (실측)</text>
<rect x="126" y="246" width="12" height="16" rx="2" class="box-neutral s-gray" stroke-width="1.1"/>
<text x="144.0" y="259.0" text-anchor="start" class="lbl-sub" font-size="12">커널 launch 1회</text>
<path d="M126.0 280.0 L680.0 280.0" class="edge" fill="none" stroke-width="1.2" marker-end="url(#ccArrow5)"/>
<text x="688.0" y="284.0" text-anchor="start" class="lbl-sub" font-size="12.5">시간</text>
</svg>
